# xmcd
#
# Track frame offsets: 
#        150
#        14198
#        27462
#        46489
#        61169
#        68704
#        80219
#        90578
#        104218
#        113822
#        125658
#        134197
#        145600
#        156914
#        167822
#        177057
#        185541
#        194337
#        214612
#        227674
#        236046
#        249511
#        262156
#        269315
#        282319
#        292018
#        313511
#
# Disc length: 4290 seconds
#
# Revision: 4
# Processed by: cddbd v1.5.1PL0 Copyright (c) Steve Scherf et al.
# Submitted via: ExactAudioCopy v0.95a5
#
DISCID=a810c01b
DTITLE=Ночные Снайперы - Капля Дёгтя В Бочке Меда
DYEAR=1998
DGENRE=Acoustic
TTITLE0=Русский Пассажир
TTITLE1=Блины По-Снайперски
TTITLE2=Автомобильный Блюз
TTITLE3=Так Начинался День
TTITLE4=Джаз
TTITLE5=Просто Кончился Мед
TTITLE6=Только Шум На Реке
TTITLE7=Алмазный Британец
TTITLE8=Завоюй Меня
TTITLE9=По Волнам Твоих Слез
TTITLE10=Зовет Дорога
TTITLE11=Я Раскрашивал Небо
TTITLE12=Уп-Тау-Ду
TTITLE13=Я Не Знаю Кто Ты
TTITLE14=В Этом Городе Ф.
TTITLE15=Романс No.4
TTITLE16=Бутылки
TTITLE17=До Востребования
TTITLE18=Лист Филь
TTITLE19=Пороховая
TTITLE20=Тайна
TTITLE21=Блюзы Гор
TTITLE22=Офицерская Жена
TTITLE23=Бу-Бу
TTITLE24=Кошка
TTITLE25=На Границе
TTITLE26=Вот И Все Мои Песенки
EXTD=YEAR: 1998 ID3G: 99
EXTT0=
EXTT1=
EXTT2=
EXTT3=
EXTT4=
EXTT5=
EXTT6=
EXTT7=
EXTT8=
EXTT9=
EXTT10=
EXTT11=
EXTT12=
EXTT13=
EXTT14=
EXTT15=
EXTT16=
EXTT17=
EXTT18=
EXTT19=
EXTT20=
EXTT21=
EXTT22=
EXTT23=
EXTT24=
EXTT25=
EXTT26=
PLAYORDER=
